<svg width="21" height="21" viewBox="0 0 21 21" fill="none" xmlns="http://www.w3.org/2000/svg">
<path fill-rule="evenodd" clip-rule="evenodd" d="M3.51336 5.9501C3.52836 6.7091 3.11536 7.7351 2.57836 8.2711C2.08007 8.76987 1.80017 9.44606 1.80017 10.1511C1.80017 10.8561 2.08007 11.5323 2.57836 12.0311C3.10836 12.5591 3.49836 13.4751 3.51336 14.2231C3.52736 14.8851 3.78636 15.5431 4.29136 16.0471C4.75728 16.514 5.38055 16.7903 6.03936 16.8221C6.83036 16.8621 7.86636 17.3221 8.42636 17.8821C8.9251 18.3801 9.60108 18.6598 10.3059 18.6598C11.0107 18.6598 11.6866 18.3801 12.1854 17.8821C12.7454 17.3221 13.7814 16.8621 14.5724 16.8221C15.2312 16.7903 15.8544 16.514 16.3204 16.0471C16.8061 15.562 17.0846 14.9074 17.0974 14.2211C17.1124 13.4751 17.4974 12.5651 18.0264 12.0371C18.5266 11.5385 18.8082 10.8616 18.8093 10.1553C18.8104 9.44908 18.531 8.7713 18.0324 8.2711C17.4964 7.7361 17.0824 6.70909 17.0984 5.95109C17.1059 5.59321 17.0408 5.23751 16.9071 4.90546C16.7734 4.57341 16.5738 4.27189 16.3204 4.01909C16.0577 3.75574 15.7425 3.55062 15.3954 3.4171C15.0482 3.28357 14.6768 3.22463 14.3054 3.24409C13.5914 3.28009 12.6904 2.93409 12.1854 2.42809C11.6866 1.9298 11.0104 1.6499 10.3054 1.6499C9.60033 1.6499 8.92414 1.9298 8.42536 2.42809C7.92136 2.93309 7.01936 3.28009 6.30536 3.24409C5.93408 3.22477 5.56289 3.28378 5.2159 3.4173C4.86892 3.55083 4.55392 3.75586 4.29136 4.01909C4.03804 4.27177 3.83851 4.57313 3.7048 4.905C3.57109 5.23687 3.50597 5.59238 3.51336 5.9501ZM13.3414 6.77609C13.4562 6.83983 13.5574 6.92557 13.6391 7.02842C13.7208 7.13127 13.7815 7.24921 13.8176 7.3755C13.8537 7.5018 13.8646 7.63398 13.8497 7.76448C13.8347 7.89499 13.7942 8.02126 13.7304 8.1361L10.9624 13.1181C10.8907 13.2538 10.7887 13.3711 10.6644 13.4611C10.4837 13.5918 10.2645 13.6584 10.0416 13.6502C9.81875 13.6421 9.60501 13.5597 9.43436 13.4161L6.67536 11.2091C6.5728 11.127 6.48741 11.0255 6.42406 10.9105C6.36072 10.7954 6.32066 10.669 6.30617 10.5384C6.29169 10.4078 6.30306 10.2757 6.33964 10.1495C6.37622 10.0234 6.43729 9.90566 6.51936 9.80309C6.60144 9.70053 6.70291 9.61514 6.81799 9.55179C6.93307 9.48845 7.0595 9.44839 7.19005 9.4339C7.32061 9.41942 7.45275 9.43079 7.57891 9.46737C7.70508 9.50395 7.8228 9.56502 7.92536 9.64709L9.77836 11.1301L11.9814 7.16409C12.0452 7.04932 12.131 6.94823 12.2339 6.86661C12.3368 6.785 12.4547 6.72444 12.581 6.68842C12.7073 6.65239 12.8394 6.64158 12.9699 6.65663C13.1004 6.67167 13.2266 6.71227 13.3414 6.77609Z" fill="#171717"/>
</svg>
