<svg width="37" height="32" viewBox="0 0 37 32" fill="none" xmlns="http://www.w3.org/2000/svg">
<path d="M32.0092 15.3821L19.6342 1.38209C19.5289 1.26303 19.3946 1.16677 19.2414 1.10058C19.0881 1.03439 18.92 1 18.7496 1C18.5793 1 18.4111 1.03439 18.2579 1.10058C18.1047 1.16677 17.9704 1.26303 17.8651 1.38209L5.49011 15.3821C5.33455 15.5582 5.25 15.7757 5.25 15.9996C5.25 16.2235 5.33455 16.441 5.49011 16.6171L17.8651 30.6171C17.9704 30.7362 18.1047 30.8324 18.2579 30.8986C18.4111 30.9648 18.5793 30.9992 18.7496 30.9992C18.92 30.9992 19.0881 30.9648 19.2414 30.8986C19.3946 30.8324 19.5289 30.7362 19.6342 30.6171L32.0092 16.6171C32.1647 16.441 32.2493 16.2235 32.2493 15.9996C32.2493 15.7757 32.1647 15.5582 32.0092 15.3821ZM19.8746 4.89084L29.3556 15.6158L19.8746 19.4471V4.89084ZM17.6246 19.4471L8.1437 15.6158L17.6246 4.89084V19.4471ZM17.6246 21.6433V27.1083L10.111 18.6083L17.6246 21.6433ZM19.8746 21.6433L27.3882 18.6071L19.8746 27.1071V21.6433Z" fill="#171717"/>
</svg>
