<svg width="47" height="57" viewBox="0 0 47 57" fill="none" xmlns="http://www.w3.org/2000/svg">
<path d="M12.3487 2.50371C12.762 2.97466 13.1972 3.41774 13.681 3.78769C16.1483 5.67471 23.4866 10.209 35.0948 8.29136C49.5989 5.89541 47.5256 22.8206 45.4522 27.3382C43.3789 31.8557 35.7263 40.1541 35.0948 44.2978C34.4634 48.4415 37.2607 59.739 30.7823 56.3738C24.3039 53.0086 20.5417 45.0762 12.056 46.0378C3.57031 46.9993 -2.44245 42.6646 1.2896 34.8566C5.02165 27.0487 9.4976 22.0006 3.73497 13.3472C-1.86771 4.93393 7.4969 -3.02476 12.3487 2.50371Z" fill="#78C4FF" fill-opacity="0.23"/>
<path d="M5.2017 23.9205L35.0072 17.1903L33.8605 10.3645C33.8217 10.1337 33.7441 9.91396 33.632 9.71789C33.52 9.52182 33.3758 9.35325 33.2075 9.22181C33.0393 9.09037 32.8504 8.99863 32.6516 8.95183C32.4528 8.90503 32.248 8.90409 32.0489 8.94906L4.62891 20.511L5.2017 23.9205Z" fill="#78C4FF"/>
<path d="M4.64648 20.6191L37.2415 13.2594C37.7101 13.1536 38.1957 13.2679 38.5916 13.5772C38.9875 13.8866 39.2611 14.3655 39.3524 14.9088L43.1011 37.2232C43.1923 37.7665 43.0937 38.3295 42.8269 38.7885C42.5601 39.2474 42.1469 39.5647 41.6784 39.6705L10.8502 46.6313C10.3816 46.7371 9.89593 46.6228 9.50006 46.3134C9.10418 46.0041 8.83052 45.5252 8.73925 44.9819L4.64648 20.6191Z" fill="#FCF4AA"/>
<path d="M28.8771 24.1151L40.271 21.5424C40.7396 21.4366 41.2253 21.5509 41.6211 21.8603C42.017 22.1696 42.2907 22.6485 42.3819 23.1918L43.2281 28.229C43.3194 28.7723 43.2208 29.3353 42.954 29.7943C42.6872 30.2532 42.274 30.5705 41.8054 30.6763L30.4115 33.249C30.3219 33.2692 30.229 33.2473 30.1532 33.1882C30.0775 33.129 30.0251 33.0373 30.0076 32.9334L28.6049 24.5833C28.5874 24.4794 28.6063 24.3717 28.6574 24.2838C28.7084 24.196 28.7875 24.1353 28.8771 24.1151V24.1151Z" fill="#78C4FF"/>
<path d="M33.3843 29.9664C34.399 29.9664 35.2217 29.0127 35.2217 27.8362C35.2217 26.6598 34.399 25.7061 33.3843 25.7061C32.3695 25.7061 31.5469 26.6598 31.5469 27.8362C31.5469 29.0127 32.3695 29.9664 33.3843 29.9664Z" fill="white"/>
</svg>
