<svg width="13" height="12" viewBox="0 0 13 12" fill="none" xmlns="http://www.w3.org/2000/svg">
<path d="M11.5 2.5H1.5C1.36739 2.5 1.24021 2.44732 1.14645 2.35355C1.05268 2.25979 1 2.13261 1 2C1 1.86739 1.05268 1.74021 1.14645 1.64645C1.24021 1.55268 1.36739 1.5 1.5 1.5H10C10.1326 1.5 10.2598 1.44732 10.3536 1.35355C10.4473 1.25979 10.5 1.13261 10.5 1C10.5 0.867392 10.4473 0.740215 10.3536 0.646447C10.2598 0.552679 10.1326 0.5 10 0.5H1.5C1.10218 0.5 0.720644 0.658035 0.43934 0.93934C0.158035 1.22064 0 1.60218 0 2V10C0 10.3978 0.158035 10.7794 0.43934 11.0607C0.720644 11.342 1.10218 11.5 1.5 11.5H11.5C11.7652 11.5 12.0196 11.3946 12.2071 11.2071C12.3946 11.0196 12.5 10.7652 12.5 10.5V3.5C12.5 3.23478 12.3946 2.98043 12.2071 2.79289C12.0196 2.60536 11.7652 2.5 11.5 2.5ZM9.25 7.5C9.10166 7.5 8.95666 7.45601 8.83332 7.3736C8.70999 7.29119 8.61386 7.17406 8.55709 7.03701C8.50033 6.89997 8.48547 6.74917 8.51441 6.60368C8.54335 6.4582 8.61478 6.32456 8.71967 6.21967C8.82456 6.11478 8.9582 6.04335 9.10368 6.01441C9.24917 5.98547 9.39997 6.00033 9.53701 6.05709C9.67406 6.11386 9.79119 6.20999 9.8736 6.33332C9.95601 6.45666 10 6.60166 10 6.75C10 6.94891 9.92098 7.13968 9.78033 7.28033C9.63968 7.42098 9.44891 7.5 9.25 7.5Z" fill="#737373"/>
</svg>
