<svg width="33" height="33" viewBox="0 0 33 33" fill="none" xmlns="http://www.w3.org/2000/svg">
<g id="ArrowFatLinesRight">
<path id="Vector" d="M30.2075 15.7923L18.2075 3.79231C18.0676 3.6523 17.8894 3.55693 17.6953 3.51828C17.5012 3.47963 17.3 3.49944 17.1172 3.57519C16.9344 3.65094 16.7782 3.77923 16.6683 3.94383C16.5584 4.10842 16.4998 4.30192 16.5 4.49981V9.49981H13.5C13.2348 9.49981 12.9804 9.60517 12.7929 9.7927C12.6054 9.98024 12.5 10.2346 12.5 10.4998V22.4998C12.5 22.765 12.6054 23.0194 12.7929 23.2069C12.9804 23.3945 13.2348 23.4998 13.5 23.4998H16.5V28.4998C16.4998 28.6977 16.5584 28.8912 16.6683 29.0558C16.7782 29.2204 16.9344 29.3487 17.1172 29.4244C17.3 29.5002 17.5012 29.52 17.6953 29.4813C17.8894 29.4427 18.0676 29.3473 18.2075 29.2073L30.2075 17.2073C30.3005 17.1144 30.3742 17.0041 30.4246 16.8828C30.4749 16.7614 30.5008 16.6312 30.5008 16.4998C30.5008 16.3684 30.4749 16.2383 30.4246 16.1169C30.3742 15.9955 30.3005 15.8852 30.2075 15.7923ZM18.5 26.0861V22.4998C18.5 22.2346 18.3946 21.9802 18.2071 21.7927C18.0196 21.6052 17.7652 21.4998 17.5 21.4998H14.5V11.4998H17.5C17.7652 11.4998 18.0196 11.3945 18.2071 11.2069C18.3946 11.0194 18.5 10.765 18.5 10.4998V6.91356L28.0863 16.4998L18.5 26.0861ZM6.5 10.4998V22.4998C6.5 22.765 6.39464 23.0194 6.20711 23.2069C6.01957 23.3945 5.76522 23.4998 5.5 23.4998C5.23478 23.4998 4.98043 23.3945 4.79289 23.2069C4.60536 23.0194 4.5 22.765 4.5 22.4998V10.4998C4.5 10.2346 4.60536 9.98024 4.79289 9.7927C4.98043 9.60517 5.23478 9.49981 5.5 9.49981C5.76522 9.49981 6.01957 9.60517 6.20711 9.7927C6.39464 9.98024 6.5 10.2346 6.5 10.4998ZM10.5 10.4998V22.4998C10.5 22.765 10.3946 23.0194 10.2071 23.2069C10.0196 23.3945 9.76522 23.4998 9.5 23.4998C9.23478 23.4998 8.98043 23.3945 8.79289 23.2069C8.60536 23.0194 8.5 22.765 8.5 22.4998V10.4998C8.5 10.2346 8.60536 9.98024 8.79289 9.7927C8.98043 9.60517 9.23478 9.49981 9.5 9.49981C9.76522 9.49981 10.0196 9.60517 10.2071 9.7927C10.3946 9.98024 10.5 10.2346 10.5 10.4998Z" fill="#343330"/>
</g>
</svg>
