<svg width="72" height="68" viewBox="0 0 72 68" fill="none" xmlns="http://www.w3.org/2000/svg">
<g id="token-branded">
<path id="Vector" d="M59.6032 10.7939L38.3633 26.51L42.313 17.2481L59.6032 10.7939Z" fill="#E17726"/>
<path id="Vector_2" d="M12.4469 10.8125L29.6909 17.2492L33.4412 26.6326L12.4469 10.8125ZM51.0547 44.2177L60.4425 44.3963L57.1616 55.5419L45.7064 52.3881L51.0547 44.2177ZM20.9446 44.2177L26.273 52.3881L14.8372 55.5421L11.5762 44.3963L20.9446 44.2177Z" fill="#E27625"/>
<path id="Vector_3" d="M32.9323 24.2427L33.3159 36.6338L21.8359 36.1115L25.1014 31.1851L25.1428 31.1377L32.9323 24.2427ZM38.9502 24.1045L46.8586 31.1381L46.8996 31.1853L50.165 36.1117L38.6876 36.6338L38.9502 24.1045ZM26.6102 44.2539L32.8785 49.138L25.597 52.6534L26.6102 44.2539ZM45.3923 44.2531L46.3845 52.6536L39.1232 49.1376L45.3923 44.2531Z" fill="#E27625"/>
<path id="Vector_4" d="M39.2823 48.6777L46.6506 52.2456L39.7966 55.5029L39.8678 53.3501L39.2823 48.6777ZM32.7145 48.6793L32.152 53.3149L32.1982 55.5004L25.3281 52.2456L32.7145 48.6793Z" fill="#D5BFB2"/>
<path id="Vector_5" d="M30.587 38.251L32.5125 42.2976L25.957 40.3772L30.587 38.251ZM41.4122 38.2514L46.0641 40.3772L39.4872 42.297L41.4122 38.2514Z" fill="#233447"/>
<path id="Vector_6" d="M27.1102 44.2126L26.0506 52.9215L20.3711 44.4031L27.1102 44.2126ZM44.8896 44.2128L51.629 44.4031L45.9282 52.9219L44.8896 44.2128ZM50.33 35.6191L45.4254 40.6177L41.6439 38.8896L39.8335 42.6957L38.6466 36.1507L50.33 35.6191ZM21.667 35.6191L33.3527 36.1507L32.1656 42.6957L30.3548 38.8902L26.5934 40.6179L21.667 35.6191Z" fill="#CC6228"/>
<path id="Vector_7" d="M21.3359 34.5931L26.885 40.2239L27.0772 45.7828L21.3359 34.5931ZM50.668 34.583L44.9163 45.7926L45.1329 40.2239L50.668 34.583ZM33.0808 34.9361L33.3041 36.3418L33.856 39.8437L33.5011 50.5994L31.8237 41.9591L31.8232 41.8698L33.0808 34.9361ZM38.9146 34.9166L40.1755 41.8698L40.1749 41.9591L38.4933 50.621L38.4268 48.4544L38.1644 39.7799L38.9146 34.9166Z" fill="#E27525"/>
<path id="Vector_8" d="M45.6262 40L45.4385 44.8297L39.5847 49.3905L38.4014 48.5544L39.7278 41.7221L45.6262 40ZM26.3926 40L32.2705 41.7221L33.597 48.5544L32.4136 49.3905L26.5596 44.8293L26.3926 40Z" fill="#F5841F"/>
<path id="Vector_9" d="M24.209 51.1787L31.6982 54.7272L31.6665 53.2119L32.2931 52.6618H39.7054L40.3547 53.21L40.3067 54.7241L47.7486 51.1876L44.1273 54.18L39.7487 57.1874H32.233L27.8573 54.1677L24.209 51.1787Z" fill="#C0AC9D"/>
<path id="Vector_10" d="M38.7463 48.2051L39.8051 48.9532L40.4256 53.904L39.5277 53.1458H32.4747L31.5938 53.9192L32.1939 48.9536L33.2532 48.2051H38.7463Z" fill="#161616"/>
<path id="Vector_11" d="M58.2004 11.2285L60.75 18.8772L59.1577 26.611L60.2915 27.4856L58.7572 28.6562L59.9104 29.5468L58.3835 30.9373L59.3209 31.6161L56.8331 34.5216L46.6295 31.5506L46.5412 31.5032L39.1883 25.3006L58.2004 11.2285ZM13.7996 11.2285L32.8119 25.3006L25.4588 31.5032L25.3705 31.5506L15.1669 34.5216L12.6791 31.6161L13.6158 30.9378L12.0898 29.5468L13.2406 28.6572L11.6833 27.4833L12.8599 26.6081L11.25 18.8776L13.7996 11.2285Z" fill="#763E1A"/>
<path id="Vector_12" d="M46.1296 30.9012L56.9409 34.0489L60.4532 44.8743H51.1867L44.802 44.9548L49.4453 35.904L46.1296 30.9012ZM25.8686 30.9012L22.5523 35.904L27.1962 44.9548L20.8144 44.8743H11.5645L15.0571 34.0491L25.8686 30.9012ZM42.8409 17.1963L39.817 25.3636L39.1752 36.3967L38.9296 39.8549L38.9101 48.6891H33.0879L33.0689 39.8715L32.8226 36.3938L32.1806 25.3636L29.1571 17.1963H42.8409Z" fill="#F5841F"/>
</g>
</svg>
