<svg width="72" height="72" viewBox="0 0 72 72" fill="none" xmlns="http://www.w3.org/2000/svg">
<g id="token-branded">
<path id="Vector" d="M13.101 60C20.757 60 26.511 53.604 29.943 48.549C29.5335 49.6051 29.3141 50.7254 29.295 51.858C29.295 54.81 31.059 56.913 34.539 56.913C39.318 56.913 44.421 52.887 47.067 48.549C46.8886 49.1131 46.7946 49.7004 46.788 50.292C46.788 52.35 47.994 53.649 50.454 53.649C58.203 53.649 66 40.449 66 28.911C66 19.917 61.266 12 49.386 12C28.506 12 6 36.516 6 52.35C6 58.569 9.48 60 13.101 60ZM42.195 27.924C42.195 25.689 43.494 24.123 45.396 24.123C47.253 24.123 48.552 25.689 48.552 27.924C48.552 30.162 47.253 31.773 45.396 31.773C43.494 31.773 42.195 30.162 42.195 27.924ZM52.125 27.924C52.125 25.689 53.424 24.123 55.326 24.123C57.186 24.123 58.482 25.689 58.482 27.924C58.482 30.162 57.183 31.773 55.326 31.773C53.424 31.773 52.125 30.162 52.125 27.924Z" fill="#AB9FF2"/>
</g>
</svg>
