<svg width="18" height="20" viewBox="0 0 18 20" fill="none" xmlns="http://www.w3.org/2000/svg">
<mask id="path-1-inside-1_3044_2272" fill="white">
<path d="M16.5 1.99951H14.25V1.24951C14.25 1.0506 14.171 0.859834 14.0303 0.719182C13.8897 0.578529 13.6989 0.499512 13.5 0.499512C13.3011 0.499512 13.1103 0.578529 12.9697 0.719182C12.829 0.859834 12.75 1.0506 12.75 1.24951V1.99951H5.25V1.24951C5.25 1.0506 5.17098 0.859834 5.03033 0.719182C4.88968 0.578529 4.69891 0.499512 4.5 0.499512C4.30109 0.499512 4.11032 0.578529 3.96967 0.719182C3.82902 0.859834 3.75 1.0506 3.75 1.24951V1.99951H1.5C1.10218 1.99951 0.720644 2.15755 0.43934 2.43885C0.158035 2.72016 0 3.10169 0 3.49951V18.4995C0 18.8973 0.158035 19.2789 0.43934 19.5602C0.720644 19.8415 1.10218 19.9995 1.5 19.9995H16.5C16.8978 19.9995 17.2794 19.8415 17.5607 19.5602C17.842 19.2789 18 18.8973 18 18.4995V3.49951C18 3.10169 17.842 2.72016 17.5607 2.43885C17.2794 2.15755 16.8978 1.99951 16.5 1.99951ZM3.75 3.49951V4.24951C3.75 4.44842 3.82902 4.63919 3.96967 4.77984C4.11032 4.92049 4.30109 4.99951 4.5 4.99951C4.69891 4.99951 4.88968 4.92049 5.03033 4.77984C5.17098 4.63919 5.25 4.44842 5.25 4.24951V3.49951H12.75V4.24951C12.75 4.44842 12.829 4.63919 12.9697 4.77984C13.1103 4.92049 13.3011 4.99951 13.5 4.99951C13.6989 4.99951 13.8897 4.92049 14.0303 4.77984C14.171 4.63919 14.25 4.44842 14.25 4.24951V3.49951H16.5V6.49951H1.5V3.49951H3.75ZM16.5 18.4995H1.5V7.99951H16.5V18.4995ZM7.5 10.2495V16.2495C7.5 16.4484 7.42098 16.6392 7.28033 16.7798C7.13968 16.9205 6.94891 16.9995 6.75 16.9995C6.55109 16.9995 6.36032 16.9205 6.21967 16.7798C6.07902 16.6392 6 16.4484 6 16.2495V11.4626L5.58563 11.6708C5.4076 11.7598 5.2015 11.7744 5.01268 11.7115C4.82385 11.6485 4.66776 11.5132 4.57875 11.3351C4.48974 11.1571 4.47509 10.951 4.53803 10.7622C4.60097 10.5734 4.73635 10.4173 4.91437 10.3283L6.41437 9.57826C6.52876 9.52102 6.65589 9.49399 6.78367 9.49973C6.91145 9.50547 7.03563 9.5438 7.14442 9.61106C7.25322 9.67833 7.343 9.7723 7.40523 9.88405C7.46747 9.9958 7.50009 10.1216 7.5 10.2495ZM13.0463 13.1042L11.25 15.4995H12.75C12.9489 15.4995 13.1397 15.5785 13.2803 15.7192C13.421 15.8598 13.5 16.0506 13.5 16.2495C13.5 16.4484 13.421 16.6392 13.2803 16.7798C13.1397 16.9205 12.9489 16.9995 12.75 16.9995H9.75C9.61072 16.9995 9.47418 16.9607 9.3557 16.8875C9.23722 16.8143 9.14147 16.7095 9.07918 16.5849C9.01689 16.4603 8.99052 16.3209 9.00303 16.1822C9.01554 16.0434 9.06643 15.9109 9.15 15.7995L11.8481 12.2023C11.9095 12.1206 11.9535 12.0272 11.9775 11.9279C12.0015 11.8286 12.0049 11.7254 11.9876 11.6247C11.9703 11.524 11.9325 11.4279 11.8767 11.3423C11.8209 11.2567 11.7482 11.1834 11.6631 11.1269C11.5779 11.0704 11.4821 11.0319 11.3816 11.0138C11.281 10.9957 11.1778 10.9983 11.0783 11.0214C10.9788 11.0446 10.885 11.0879 10.8028 11.1486C10.7206 11.2093 10.6517 11.2862 10.6003 11.3745C10.5525 11.4625 10.4876 11.5401 10.4093 11.6026C10.3311 11.6651 10.2411 11.7113 10.1447 11.7385C10.0483 11.7657 9.94745 11.7732 9.84807 11.7608C9.74869 11.7484 9.65281 11.7162 9.56609 11.6661C9.47936 11.616 9.40355 11.549 9.34312 11.4691C9.28269 11.3893 9.23887 11.2981 9.21424 11.201C9.18962 11.1039 9.18468 11.0029 9.19973 10.9039C9.21478 10.8049 9.24951 10.7099 9.30188 10.6245C9.54962 10.1958 9.93188 9.86075 10.3894 9.67135C10.8469 9.48196 11.3541 9.44877 11.8324 9.57694C12.3107 9.70511 12.7333 9.98748 13.0348 10.3803C13.3363 10.7731 13.4998 11.2543 13.5 11.7495C13.5016 12.2386 13.3421 12.7147 13.0463 13.1042Z"/>
</mask>
<path d="M16.5 1.99951H14.25V1.24951C14.25 1.0506 14.171 0.859834 14.0303 0.719182C13.8897 0.578529 13.6989 0.499512 13.5 0.499512C13.3011 0.499512 13.1103 0.578529 12.9697 0.719182C12.829 0.859834 12.75 1.0506 12.75 1.24951V1.99951H5.25V1.24951C5.25 1.0506 5.17098 0.859834 5.03033 0.719182C4.88968 0.578529 4.69891 0.499512 4.5 0.499512C4.30109 0.499512 4.11032 0.578529 3.96967 0.719182C3.82902 0.859834 3.75 1.0506 3.75 1.24951V1.99951H1.5C1.10218 1.99951 0.720644 2.15755 0.43934 2.43885C0.158035 2.72016 0 3.10169 0 3.49951V18.4995C0 18.8973 0.158035 19.2789 0.43934 19.5602C0.720644 19.8415 1.10218 19.9995 1.5 19.9995H16.5C16.8978 19.9995 17.2794 19.8415 17.5607 19.5602C17.842 19.2789 18 18.8973 18 18.4995V3.49951C18 3.10169 17.842 2.72016 17.5607 2.43885C17.2794 2.15755 16.8978 1.99951 16.5 1.99951ZM3.75 3.49951V4.24951C3.75 4.44842 3.82902 4.63919 3.96967 4.77984C4.11032 4.92049 4.30109 4.99951 4.5 4.99951C4.69891 4.99951 4.88968 4.92049 5.03033 4.77984C5.17098 4.63919 5.25 4.44842 5.25 4.24951V3.49951H12.75V4.24951C12.75 4.44842 12.829 4.63919 12.9697 4.77984C13.1103 4.92049 13.3011 4.99951 13.5 4.99951C13.6989 4.99951 13.8897 4.92049 14.0303 4.77984C14.171 4.63919 14.25 4.44842 14.25 4.24951V3.49951H16.5V6.49951H1.5V3.49951H3.75ZM16.5 18.4995H1.5V7.99951H16.5V18.4995ZM7.5 10.2495V16.2495C7.5 16.4484 7.42098 16.6392 7.28033 16.7798C7.13968 16.9205 6.94891 16.9995 6.75 16.9995C6.55109 16.9995 6.36032 16.9205 6.21967 16.7798C6.07902 16.6392 6 16.4484 6 16.2495V11.4626L5.58563 11.6708C5.4076 11.7598 5.2015 11.7744 5.01268 11.7115C4.82385 11.6485 4.66776 11.5132 4.57875 11.3351C4.48974 11.1571 4.47509 10.951 4.53803 10.7622C4.60097 10.5734 4.73635 10.4173 4.91437 10.3283L6.41437 9.57826C6.52876 9.52102 6.65589 9.49399 6.78367 9.49973C6.91145 9.50547 7.03563 9.5438 7.14442 9.61106C7.25322 9.67833 7.343 9.7723 7.40523 9.88405C7.46747 9.9958 7.50009 10.1216 7.5 10.2495ZM13.0463 13.1042L11.25 15.4995H12.75C12.9489 15.4995 13.1397 15.5785 13.2803 15.7192C13.421 15.8598 13.5 16.0506 13.5 16.2495C13.5 16.4484 13.421 16.6392 13.2803 16.7798C13.1397 16.9205 12.9489 16.9995 12.75 16.9995H9.75C9.61072 16.9995 9.47418 16.9607 9.3557 16.8875C9.23722 16.8143 9.14147 16.7095 9.07918 16.5849C9.01689 16.4603 8.99052 16.3209 9.00303 16.1822C9.01554 16.0434 9.06643 15.9109 9.15 15.7995L11.8481 12.2023C11.9095 12.1206 11.9535 12.0272 11.9775 11.9279C12.0015 11.8286 12.0049 11.7254 11.9876 11.6247C11.9703 11.524 11.9325 11.4279 11.8767 11.3423C11.8209 11.2567 11.7482 11.1834 11.6631 11.1269C11.5779 11.0704 11.4821 11.0319 11.3816 11.0138C11.281 10.9957 11.1778 10.9983 11.0783 11.0214C10.9788 11.0446 10.885 11.0879 10.8028 11.1486C10.7206 11.2093 10.6517 11.2862 10.6003 11.3745C10.5525 11.4625 10.4876 11.5401 10.4093 11.6026C10.3311 11.6651 10.2411 11.7113 10.1447 11.7385C10.0483 11.7657 9.94745 11.7732 9.84807 11.7608C9.74869 11.7484 9.65281 11.7162 9.56609 11.6661C9.47936 11.616 9.40355 11.549 9.34312 11.4691C9.28269 11.3893 9.23887 11.2981 9.21424 11.201C9.18962 11.1039 9.18468 11.0029 9.19973 10.9039C9.21478 10.8049 9.24951 10.7099 9.30188 10.6245C9.54962 10.1958 9.93188 9.86075 10.3894 9.67135C10.8469 9.48196 11.3541 9.44877 11.8324 9.57694C12.3107 9.70511 12.7333 9.98748 13.0348 10.3803C13.3363 10.7731 13.4998 11.2543 13.5 11.7495C13.5016 12.2386 13.3421 12.7147 13.0463 13.1042Z" fill="#343330"/>
<path d="M16.5 1.99951V0.499512V1.99951ZM14.25 1.99951H12.75V3.49951H14.25V1.99951ZM13.5 0.499512V-1.00049V0.499512ZM12.75 1.99951V3.49951H14.25V1.99951H12.75ZM5.25 1.99951H3.75V3.49951H5.25V1.99951ZM4.5 0.499512V-1.00049V0.499512ZM3.75 1.99951V3.49951H5.25V1.99951H3.75ZM1.5 1.99951V0.499512V1.99951ZM0 3.49951H-1.5H0ZM0 18.4995H-1.5H0ZM3.75 3.49951H5.25V1.99951H3.75V3.49951ZM5.25 3.49951V1.99951H3.75V3.49951H5.25ZM12.75 3.49951H14.25V1.99951H12.75V3.49951ZM14.25 3.49951V1.99951H12.75V3.49951H14.25ZM16.5 3.49951H18V1.99951H16.5V3.49951ZM16.5 6.49951V7.99951H18V6.49951H16.5ZM1.5 6.49951H0V7.99951H1.5V6.49951ZM1.5 3.49951V1.99951H0V3.49951H1.5ZM16.5 18.4995V19.9995H18V18.4995H16.5ZM1.5 18.4995H0V19.9995H1.5V18.4995ZM1.5 7.99951V6.49951H0V7.99951H1.5ZM16.5 7.99951H18V6.49951H16.5V7.99951ZM7.5 10.2495L6 10.2484V10.2495H7.5ZM6 11.4626H7.5V9.03067L5.32675 10.1222L6 11.4626ZM5.58563 11.6708L6.25645 13.0124L6.25887 13.0112L5.58563 11.6708ZM6.41437 9.57826L7.0852 10.9199L7.08563 10.9197L6.41437 9.57826ZM13.0463 13.1042L11.8518 12.1968L11.8462 12.2043L13.0463 13.1042ZM11.25 15.4995L10.0499 14.5996L8.25023 16.9995H11.25V15.4995ZM9.15 15.7995L7.95004 14.8995L7.95 14.8995L9.15 15.7995ZM11.8481 12.2023L10.6488 11.3014L10.6482 11.3023L11.8481 12.2023ZM10.6003 11.3745L9.30402 10.6198L9.29278 10.6391L9.28212 10.6587L10.6003 11.3745ZM9.30188 10.6245L10.5806 11.4087L10.5908 11.392L10.6006 11.375L9.30188 10.6245ZM13.5 11.7495L12 11.75L12 11.7544L13.5 11.7495ZM16.5 0.499512H14.25V3.49951H16.5V0.499512ZM15.75 1.99951V1.24951H12.75V1.99951H15.75ZM15.75 1.24951C15.75 0.652778 15.5129 0.0804804 15.091 -0.341479L12.9697 1.77984C12.829 1.63919 12.75 1.44842 12.75 1.24951H15.75ZM15.091 -0.341479C14.669 -0.763436 14.0967 -1.00049 13.5 -1.00049V1.99951C13.3011 1.99951 13.1103 1.9205 12.9697 1.77984L15.091 -0.341479ZM13.5 -1.00049C12.9033 -1.00049 12.331 -0.763436 11.909 -0.341479L14.0303 1.77984C13.8897 1.9205 13.6989 1.99951 13.5 1.99951V-1.00049ZM11.909 -0.341479C11.4871 0.0804804 11.25 0.652778 11.25 1.24951H14.25C14.25 1.44842 14.171 1.63919 14.0303 1.77984L11.909 -0.341479ZM11.25 1.24951V1.99951H14.25V1.24951H11.25ZM12.75 0.499512H5.25V3.49951H12.75V0.499512ZM6.75 1.99951V1.24951H3.75V1.99951H6.75ZM6.75 1.24951C6.75 0.652774 6.51295 0.0804778 6.09099 -0.341479L3.96967 1.77984C3.82902 1.63919 3.75 1.44842 3.75 1.24951H6.75ZM6.09099 -0.341479C5.66903 -0.763435 5.09674 -1.00049 4.5 -1.00049V1.99951C4.30109 1.99951 4.11032 1.92049 3.96967 1.77984L6.09099 -0.341479ZM4.5 -1.00049C3.90326 -1.00049 3.33097 -0.763435 2.90901 -0.341479L5.03033 1.77984C4.88968 1.92049 4.69891 1.99951 4.5 1.99951V-1.00049ZM2.90901 -0.341479C2.48705 0.0804778 2.25 0.652774 2.25 1.24951H5.25C5.25 1.44842 5.17098 1.63919 5.03033 1.77984L2.90901 -0.341479ZM2.25 1.24951V1.99951H5.25V1.24951H2.25ZM3.75 0.499512H1.5V3.49951H3.75V0.499512ZM1.5 0.499512C0.704351 0.499512 -0.0587111 0.815582 -0.62132 1.37819L1.5 3.49951H1.5V0.499512ZM-0.62132 1.37819C-1.18393 1.9408 -1.5 2.70386 -1.5 3.49951H1.5H1.5L-0.62132 1.37819ZM-1.5 3.49951V18.4995H1.5V3.49951H-1.5ZM-1.5 18.4995C-1.5 19.2952 -1.18393 20.0582 -0.62132 20.6208L1.5 18.4995H1.5H-1.5ZM-0.62132 20.6208C-0.0587118 21.1834 0.70435 21.4995 1.5 21.4995V18.4995H1.5L-0.62132 20.6208ZM1.5 21.4995H16.5V18.4995H1.5V21.4995ZM16.5 21.4995C17.2957 21.4995 18.0587 21.1834 18.6213 20.6208L16.5 18.4995V21.4995ZM18.6213 20.6208C19.1839 20.0582 19.5 19.2952 19.5 18.4995H16.5L18.6213 20.6208ZM19.5 18.4995V3.49951H16.5V18.4995H19.5ZM19.5 3.49951C19.5 2.70386 19.1839 1.9408 18.6213 1.37819L16.5 3.49951H19.5ZM18.6213 1.37819C18.0587 0.815582 17.2957 0.499512 16.5 0.499512V3.49951L18.6213 1.37819ZM2.25 3.49951V4.24951H5.25V3.49951H2.25ZM2.25 4.24951C2.25 4.84625 2.48705 5.41855 2.90901 5.8405L5.03033 3.71918C5.17098 3.85983 5.25 4.0506 5.25 4.24951H2.25ZM2.90901 5.8405C3.33097 6.26246 3.90326 6.49951 4.5 6.49951V3.49951C4.69891 3.49951 4.88968 3.57853 5.03033 3.71918L2.90901 5.8405ZM4.5 6.49951C5.09674 6.49951 5.66903 6.26246 6.09099 5.8405L3.96967 3.71918C4.11032 3.57853 4.30109 3.49951 4.5 3.49951V6.49951ZM6.09099 5.8405C6.51295 5.41855 6.75 4.84625 6.75 4.24951H3.75C3.75 4.0506 3.82902 3.85983 3.96967 3.71918L6.09099 5.8405ZM6.75 4.24951V3.49951H3.75V4.24951H6.75ZM5.25 4.99951H12.75V1.99951H5.25V4.99951ZM11.25 3.49951V4.24951H14.25V3.49951H11.25ZM11.25 4.24951C11.25 4.84625 11.4871 5.41854 11.909 5.8405L14.0303 3.71918C14.171 3.85984 14.25 4.0506 14.25 4.24951H11.25ZM11.909 5.8405C12.331 6.26246 12.9033 6.49951 13.5 6.49951V3.49951C13.6989 3.49951 13.8897 3.57853 14.0303 3.71918L11.909 5.8405ZM13.5 6.49951C14.0967 6.49951 14.669 6.26246 15.091 5.8405L12.9697 3.71918C13.1103 3.57853 13.3011 3.49951 13.5 3.49951V6.49951ZM15.091 5.8405C15.5129 5.41854 15.75 4.84625 15.75 4.24951H12.75C12.75 4.0506 12.829 3.85984 12.9697 3.71918L15.091 5.8405ZM15.75 4.24951V3.49951H12.75V4.24951H15.75ZM14.25 4.99951H16.5V1.99951H14.25V4.99951ZM15 3.49951V6.49951H18V3.49951H15ZM16.5 4.99951H1.5V7.99951H16.5V4.99951ZM3 6.49951V3.49951H0V6.49951H3ZM1.5 4.99951H3.75V1.99951H1.5V4.99951ZM16.5 16.9995H1.5V19.9995H16.5V16.9995ZM3 18.4995V7.99951H0V18.4995H3ZM1.5 9.49951H16.5V6.49951H1.5V9.49951ZM15 7.99951V18.4995H18V7.99951H15ZM6 10.2495V16.2495H9V10.2495H6ZM6 16.2495C6 16.0506 6.07902 15.8598 6.21967 15.7192L8.34099 17.8405C8.76295 17.4185 9 16.8462 9 16.2495H6ZM6.21967 15.7192C6.36032 15.5785 6.55109 15.4995 6.75 15.4995V18.4995C7.34673 18.4995 7.91903 18.2625 8.34099 17.8405L6.21967 15.7192ZM6.75 15.4995C6.94891 15.4995 7.13968 15.5785 7.28033 15.7192L5.15901 17.8405C5.58097 18.2625 6.15327 18.4995 6.75 18.4995V15.4995ZM7.28033 15.7192C7.42098 15.8598 7.5 16.0506 7.5 16.2495H4.5C4.5 16.8462 4.73705 17.4185 5.15901 17.8405L7.28033 15.7192ZM7.5 16.2495V11.4626H4.5V16.2495H7.5ZM5.32675 10.1222L4.91238 10.3303L6.25887 13.0112L6.67325 12.8031L5.32675 10.1222ZM4.9148 10.3291C5.0926 10.2402 5.29844 10.2256 5.48702 10.2885L4.53834 13.1345C5.10457 13.3232 5.72259 13.2793 6.25645 13.0124L4.9148 10.3291ZM5.48702 10.2885C5.6756 10.3513 5.83149 10.4865 5.92039 10.6643L3.23711 12.006C3.50404 12.5398 3.9721 12.9458 4.53834 13.1345L5.48702 10.2885ZM5.92039 10.6643C6.00929 10.8421 6.02392 11.0479 5.96106 11.2365L3.11501 10.2878C2.92626 10.8541 2.97018 11.4721 3.23711 12.006L5.92039 10.6643ZM5.96106 11.2365C5.8982 11.4251 5.763 11.581 5.5852 11.6699L4.24355 8.98662C3.7097 9.25355 3.30375 9.72161 3.11501 10.2878L5.96106 11.2365ZM5.5852 11.6699L7.0852 10.9199L5.74355 8.23662L4.24355 8.98662L5.5852 11.6699ZM7.08563 10.9197C6.97124 10.9769 6.84411 11.004 6.71634 10.9982L6.851 8.00124C6.46766 7.98402 6.08629 8.06512 5.74312 8.23684L7.08563 10.9197ZM6.71634 10.9982C6.58856 10.9925 6.46437 10.9542 6.35558 10.8869L7.93327 8.33524C7.6069 8.13344 7.23433 8.01847 6.851 8.00124L6.71634 10.9982ZM6.35558 10.8869C6.24679 10.8196 6.157 10.7256 6.09477 10.6139L8.7157 9.1542C8.52899 8.81896 8.25965 8.53704 7.93327 8.33524L6.35558 10.8869ZM6.09477 10.6139C6.03253 10.5021 5.99991 10.3763 6 10.2484L9 10.2506C9.00027 9.86686 8.90241 9.48944 8.7157 9.1542L6.09477 10.6139ZM11.8462 12.2043L10.0499 14.5996L12.4501 16.3994L14.2463 14.0041L11.8462 12.2043ZM11.25 16.9995H12.75V13.9995H11.25V16.9995ZM12.75 16.9995C12.5511 16.9995 12.3603 16.9205 12.2197 16.7798L14.341 14.6585C13.919 14.2366 13.3467 13.9995 12.75 13.9995V16.9995ZM12.2197 16.7798C12.079 16.6392 12 16.4484 12 16.2495H15C15 15.6528 14.763 15.0805 14.341 14.6585L12.2197 16.7798ZM12 16.2495C12 16.0506 12.079 15.8598 12.2197 15.7192L14.341 17.8405C14.763 17.4185 15 16.8462 15 16.2495H12ZM12.2197 15.7192C12.3603 15.5785 12.5511 15.4995 12.75 15.4995V18.4995C13.3467 18.4995 13.919 18.2625 14.341 17.8405L12.2197 15.7192ZM12.75 15.4995H9.75V18.4995H12.75V15.4995ZM9.75 15.4995C9.88928 15.4995 10.0258 15.5383 10.1443 15.6115L8.5671 18.1635C8.92255 18.3832 9.33215 18.4995 9.75 18.4995V15.4995ZM10.1443 15.6115C10.2628 15.6848 10.3585 15.7895 10.4208 15.9141L7.73754 17.2557C7.92441 17.6295 8.21165 17.9438 8.5671 18.1635L10.1443 15.6115ZM10.4208 15.9141C10.4831 16.0387 10.5095 16.1781 10.497 16.3169L7.50909 16.0474C7.47156 16.4636 7.55067 16.882 7.73754 17.2557L10.4208 15.9141ZM10.497 16.3169C10.4845 16.4556 10.4336 16.5881 10.35 16.6995L7.95 14.8995C7.69929 15.2338 7.54662 15.6313 7.50909 16.0474L10.497 16.3169ZM10.35 16.6996L13.0481 13.1024L10.6482 11.3023L7.95004 14.8995L10.35 16.6996ZM13.0475 13.1032C13.2316 12.8581 13.3637 12.578 13.4356 12.28L10.5194 11.5758C10.5434 11.4765 10.5874 11.3831 10.6488 11.3014L13.0475 13.1032ZM13.4356 12.28C13.5076 11.982 13.5179 11.6724 13.4659 11.3703L10.5093 11.8791C10.492 11.7784 10.4954 11.6752 10.5194 11.5758L13.4356 12.28ZM13.4659 11.3703C13.4139 11.0682 13.3007 10.7799 13.1333 10.5231L10.6202 12.1615C10.5644 12.0759 10.5266 11.9798 10.5093 11.8791L13.4659 11.3703ZM13.1333 10.5231C12.9659 10.2663 12.7478 10.0464 12.4923 9.87695L10.8338 12.3769C10.7487 12.3204 10.676 12.2471 10.6202 12.1615L13.1333 10.5231ZM12.4923 9.87695C12.2369 9.70749 11.9495 9.592 11.6478 9.5376L11.1154 12.49C11.0148 12.4718 10.919 12.4333 10.8338 12.3769L12.4923 9.87695ZM11.6478 9.5376C11.3461 9.48319 11.0365 9.49101 10.7379 9.56057L11.4186 12.4823C11.3191 12.5055 11.2159 12.5081 11.1154 12.49L11.6478 9.5376ZM10.7379 9.56057C10.4394 9.63013 10.1582 9.75996 9.91159 9.9421L11.6941 12.3551C11.6119 12.4159 11.5182 12.4591 11.4186 12.4823L10.7379 9.56057ZM9.91159 9.9421C9.66501 10.1242 9.45826 10.3549 9.30402 10.6198L11.8966 12.1292C11.8452 12.2175 11.7763 12.2944 11.6941 12.3551L9.91159 9.9421ZM9.28212 10.6587C9.32992 10.5707 9.39486 10.4931 9.4731 10.4306L11.3456 12.7745C11.5803 12.587 11.7751 12.3544 11.9185 12.0903L9.28212 10.6587ZM9.4731 10.4306C9.55134 10.3681 9.64132 10.3219 9.73773 10.2947L10.5517 13.1822C10.8409 13.1007 11.1108 12.9621 11.3456 12.7745L9.4731 10.4306ZM9.73773 10.2947C9.83413 10.2676 9.93499 10.26 10.0344 10.2724L9.66178 13.2492C9.9599 13.2865 10.2625 13.2637 10.5517 13.1822L9.73773 10.2947ZM10.0344 10.2724C10.1337 10.2849 10.2296 10.3171 10.3163 10.3672L8.81583 12.9649C9.07601 13.1152 9.36365 13.2119 9.66178 13.2492L10.0344 10.2724ZM10.3163 10.3672C10.4031 10.4173 10.4789 10.4842 10.5393 10.5641L8.14692 12.3742C8.32821 12.6138 8.55566 12.8147 8.81583 12.9649L10.3163 10.3672ZM10.5393 10.5641C10.5997 10.644 10.6436 10.7351 10.6682 10.8322L7.76029 11.5699C7.83417 11.8611 7.96563 12.1346 8.14692 12.3742L10.5393 10.5641ZM10.6682 10.8322C10.6928 10.9293 10.6978 11.0303 10.6827 11.1293L7.71677 10.6785C7.67162 10.9755 7.68641 11.2786 7.76029 11.5699L10.6682 10.8322ZM10.6827 11.1293C10.6676 11.2283 10.6329 11.3233 10.5806 11.4087L8.02319 9.84031C7.86611 10.0964 7.76192 10.3814 7.71677 10.6785L10.6827 11.1293ZM10.6006 11.375C10.6832 11.2321 10.8106 11.1204 10.9631 11.0573L9.81565 8.28542C9.05313 8.60108 8.41604 9.15946 8.00313 9.87401L10.6006 11.375ZM10.9631 11.0573C11.1156 10.9942 11.2847 10.9831 11.4441 11.0258L12.2207 8.12806C11.4235 7.91445 10.5782 7.96976 9.81565 8.28542L10.9631 11.0573ZM11.4441 11.0258C11.6036 11.0685 11.7444 11.1627 11.8449 11.2936L14.2247 9.46695C13.7222 8.81229 13.0178 8.34168 12.2207 8.12806L11.4441 11.0258ZM11.8449 11.2936C11.9454 11.4245 11.9999 11.585 12 11.75L15 11.749C14.9997 10.9237 14.7272 10.1216 14.2247 9.46695L11.8449 11.2936ZM12 11.7544C12.0005 11.9141 11.9484 12.0696 11.8518 12.1968L14.2407 14.0116C14.7358 13.3598 15.0027 12.5632 15 11.7446L12 11.7544Z" fill="#A3A3A3" mask="url(#path-1-inside-1_3044_2272)"/>
</svg>
