<svg width="24" height="24" viewBox="0 0 24 24" fill="none" xmlns="http://www.w3.org/2000/svg">
<g id="ChatsTeardrop">
<path id="Vector" d="M16.1522 6.45917C15.4009 4.82886 14.1153 3.50414 12.5082 2.70447C10.9011 1.9048 9.06898 1.67819 7.31546 2.06217C5.56195 2.44615 3.99224 3.41768 2.8664 4.81581C1.74056 6.21393 1.12616 7.95473 1.125 9.74979V15.9373C1.125 16.3848 1.30279 16.8141 1.61926 17.1305C1.93572 17.447 2.36495 17.6248 2.8125 17.6248H7.88437C8.52472 18.9701 9.53278 20.1066 10.792 20.9029C12.0512 21.6992 13.5101 22.1229 15 22.1248H21.1875C21.6351 22.1248 22.0643 21.947 22.3807 21.6305C22.6972 21.3141 22.875 20.8848 22.875 20.4373V14.2498C22.8751 12.3608 22.1962 10.5347 20.962 9.10456C19.7279 7.67442 18.0209 6.73554 16.1522 6.45917ZM3.375 9.74979C3.375 8.63727 3.7049 7.54973 4.32298 6.62471C4.94107 5.69968 5.81957 4.97871 6.84741 4.55297C7.87524 4.12722 9.00624 4.01583 10.0974 4.23287C11.1885 4.44991 12.1908 4.98564 12.9775 5.77231C13.7641 6.55898 14.2999 7.56126 14.5169 8.65241C14.734 9.74355 14.6226 10.8745 14.1968 11.9024C13.7711 12.9302 13.0501 13.8087 12.1251 14.4268C11.2001 15.0449 10.1125 15.3748 9 15.3748H3.375V9.74979ZM20.625 19.8748H15C14.1001 19.8737 13.2134 19.6573 12.4143 19.2435C11.6151 18.8297 10.9266 18.2306 10.4062 17.4964C12.3608 17.1433 14.1095 16.0641 15.3015 14.4753C16.4935 12.8865 17.0405 10.9057 16.8328 8.93042C17.94 9.31199 18.9004 10.0296 19.5802 10.9832C20.26 11.9367 20.6253 13.0787 20.625 14.2498V19.8748Z" fill="#737373"/>
</g>
</svg>
