<svg width="19" height="14" viewBox="0 0 19 14" fill="none" xmlns="http://www.w3.org/2000/svg">
<path d="M1.72728 13.7518H4.59092V6.7972L0.5 3.729V12.5245C0.5 13.2036 1.05023 13.7518 1.72728 13.7518Z" fill="#4285F4"/>
<path d="M14.4091 13.7518H17.2727C17.9519 13.7518 18.5 13.2016 18.5 12.5245V3.729L14.4091 6.7972" fill="#34A853"/>
<path d="M14.4091 1.47881V6.79702L18.5 3.72883V2.09245C18.5 0.574712 16.7675 -0.29052 15.5545 0.619712" fill="#FBBC04"/>
<path d="M4.59094 6.79721V1.479L9.50005 5.16084L14.4091 1.479V6.79721L9.50005 10.4791" fill="#EA4335"/>
<path d="M0.5 2.09245V3.72883L4.59092 6.79702V1.47881L3.44546 0.619712C2.23046 -0.29052 0.5 0.574712 0.5 2.09245Z" fill="#C5221F"/>
</svg>
