<svg width="138" height="40" viewBox="0 0 138 40" fill="none" xmlns="http://www.w3.org/2000/svg">
<path d="M23.672 38.808L18.584 39.288C18.072 34.84 17.704 30.488 17.48 26.232C17.256 21.944 17.128 17.72 17.096 13.56C17.096 9.368 17.16 5.24 17.288 1.176L24.104 0.119997C23.848 3.192 23.656 6.328 23.528 9.528C23.4 12.696 23.304 15.912 23.24 19.176C23.208 22.44 23.224 25.72 23.288 29.016C23.384 32.28 23.512 35.544 23.672 38.808ZM8.648 39.672C7.304 39.672 6.04 39.384 4.856 38.808C3.672 38.2 2.728 37.336 2.024 36.216C1.32 35.064 0.968 33.672 0.968 32.04C0.968 30.216 1.48 28.312 2.504 26.328C3.56 24.312 5.304 22.408 7.736 20.616C10.168 18.824 13.4 17.336 17.432 16.152L19.064 19.368C16.568 19.912 14.536 20.664 12.968 21.624C11.4 22.552 10.2 23.56 9.368 24.648C8.536 25.736 7.96 26.776 7.64 27.768C7.352 28.76 7.208 29.576 7.208 30.216C7.208 31.464 7.528 32.488 8.168 33.288C8.808 34.088 9.736 34.488 10.952 34.488C12.04 34.488 13.08 34.184 14.072 33.576C15.096 32.936 15.944 31.992 16.616 30.744C17.288 29.464 17.608 27.88 17.576 25.992L20.36 23.928C20.2 26.776 19.736 29.192 18.968 31.176C18.232 33.16 17.304 34.776 16.184 36.024C15.064 37.272 13.848 38.2 12.536 38.808C11.256 39.384 9.96 39.672 8.648 39.672ZM37.9205 27.432L36.3845 24.6C39.5205 23.608 42.0965 22.584 44.1125 21.528C46.1605 20.472 47.7605 19.416 48.9125 18.36C50.0645 17.304 50.8645 16.264 51.3125 15.24C51.7925 14.184 52.0325 13.176 52.0325 12.216C52.0325 11.352 51.8725 10.504 51.5525 9.672C51.2325 8.84 50.7365 8.152 50.0645 7.608C49.3925 7.032 48.5125 6.744 47.4245 6.744C46.3045 6.744 45.0725 7.064 43.7285 7.704C42.4165 8.344 41.2005 9.336 40.0805 10.68C38.9605 12.024 38.0805 13.736 37.4405 15.816L36.4805 12.744C37.1525 10.728 38.0165 9.016 39.0725 7.608C40.1605 6.168 41.3445 4.984 42.6245 4.056C43.9365 3.128 45.2325 2.44 46.5125 1.992C47.7925 1.544 48.9925 1.32 50.1125 1.32C51.8405 1.32 53.3125 1.688 54.5285 2.424C55.7445 3.16 56.6725 4.136 57.3125 5.352C57.9525 6.568 58.2725 7.96 58.2725 9.528C58.2725 12.024 57.5845 14.36 56.2085 16.536C54.8645 18.68 52.7045 20.664 49.7285 22.488C46.7525 24.28 42.8165 25.928 37.9205 27.432ZM32.4485 39.24C32.5445 36.008 32.5925 32.856 32.5925 29.784C32.6245 26.68 32.5925 23.656 32.4965 20.712C32.4325 17.768 32.2885 14.904 32.0645 12.12C31.8725 9.336 31.6165 6.632 31.2965 4.008L38.5925 2.856C38.6885 5.704 38.7685 8.376 38.8325 10.872C38.8965 13.368 38.9285 15.752 38.9285 18.024C38.9285 20.296 38.9125 22.552 38.8805 24.792C38.8485 27.032 38.7685 29.304 38.6405 31.608C38.5445 33.912 38.4325 36.376 38.3045 39L32.4485 39.24ZM51.8405 39.72C51.3925 37.192 50.6245 34.968 49.5365 33.048C48.4805 31.128 47.1365 29.576 45.5045 28.392C43.9045 27.176 42.0485 26.44 39.9365 26.184L41.8565 22.92C43.7765 23.304 45.6165 23.816 47.3765 24.456C49.1685 25.096 50.8165 25.992 52.3205 27.144C53.8565 28.296 55.2005 29.816 56.3525 31.704C57.5365 33.56 58.4805 35.928 59.1845 38.808L51.8405 39.72ZM80.4849 39.096C78.6929 39.288 76.8849 39.352 75.0609 39.288C73.2689 39.224 71.5729 38.984 69.9729 38.568C68.3729 38.152 66.9489 37.528 65.7009 36.696C64.4849 35.864 63.5249 34.776 62.8209 33.432C62.1169 32.088 61.7649 30.44 61.7649 28.488C61.7649 26.568 62.1169 24.904 62.8209 23.496C63.5249 22.088 64.4689 20.92 65.6529 19.992C66.8689 19.032 68.1969 18.328 69.6369 17.88C71.1089 17.4 72.5809 17.16 74.0529 17.16C76.2929 17.16 78.1649 17.576 79.6689 18.408C81.1729 19.208 82.3089 20.216 83.0769 21.432C83.8449 22.648 84.2129 23.896 84.1809 25.176C84.1809 26.232 83.9249 27.272 83.4129 28.296C82.9329 29.32 82.1169 30.168 80.9649 30.84C79.8449 31.48 78.2929 31.8 76.3089 31.8C75.6049 31.8 74.7729 31.736 73.8129 31.608C72.8849 31.48 71.9249 31.304 70.9329 31.08C69.9729 30.824 69.0609 30.536 68.1969 30.216C67.3329 29.864 66.6129 29.48 66.0369 29.064L67.2849 26.952C67.8929 27.336 68.6929 27.672 69.6849 27.96C70.7089 28.248 71.9569 28.392 73.4289 28.392C74.3569 28.392 75.2049 28.264 75.9729 28.008C76.7729 27.72 77.4129 27.272 77.8929 26.664C78.3729 26.024 78.6129 25.24 78.6129 24.312C78.6129 23.736 78.4849 23.16 78.2289 22.584C77.9729 22.008 77.5409 21.528 76.9329 21.144C76.3569 20.728 75.5409 20.52 74.4849 20.52C73.4289 20.52 72.4049 20.888 71.4129 21.624C70.4529 22.328 69.6529 23.24 69.0129 24.36C68.3729 25.448 68.0529 26.616 68.0529 27.864C68.0529 29.592 68.3729 31.064 69.0129 32.28C69.6849 33.464 70.6129 34.392 71.7969 35.064C72.9809 35.704 74.3569 36.088 75.9249 36.216C77.4929 36.344 79.2049 36.216 81.0609 35.832L80.4849 39.096ZM94.7818 38.76L89.6938 39.24C89.8538 36.2 89.9658 33.064 90.0298 29.832C90.0938 26.6 90.1098 23.352 90.0778 20.088C90.0458 16.824 89.9658 13.624 89.8378 10.488C89.7098 7.352 89.5178 4.344 89.2617 1.464L96.1258 0.407999C96.3178 6.424 96.3178 12.664 96.1258 19.128C95.9658 25.56 95.5178 32.104 94.7818 38.76ZM108.235 38.76L103.147 39.24C103.307 36.2 103.419 33.064 103.483 29.832C103.547 26.6 103.563 23.352 103.531 20.088C103.499 16.824 103.419 13.624 103.291 10.488C103.163 7.352 102.971 4.344 102.715 1.464L109.579 0.407999C109.771 6.424 109.771 12.664 109.579 19.128C109.419 25.56 108.971 32.104 108.235 38.76ZM125.731 39.576C123.235 39.576 121.155 39.032 119.491 37.944C117.827 36.856 116.579 35.448 115.747 33.72C114.915 31.992 114.499 30.184 114.499 28.296C114.499 26.376 114.915 24.536 115.747 22.776C116.579 21.016 117.827 19.576 119.491 18.456C121.155 17.336 123.203 16.776 125.635 16.776C128.259 16.776 130.435 17.336 132.163 18.456C133.891 19.544 135.187 20.952 136.051 22.68C136.947 24.408 137.395 26.232 137.395 28.152C137.395 30.04 136.947 31.864 136.051 33.624C135.187 35.384 133.891 36.824 132.163 37.944C130.467 39.032 128.323 39.576 125.731 39.576ZM125.827 36.504C127.171 36.504 128.243 36.136 129.043 35.4C129.843 34.632 130.419 33.672 130.771 32.52C131.155 31.336 131.347 30.104 131.347 28.824C131.347 27.672 131.123 26.584 130.675 25.56C130.259 24.536 129.635 23.704 128.803 23.064C128.003 22.392 126.979 22.056 125.731 22.056C124.579 22.056 123.587 22.392 122.755 23.064C121.923 23.736 121.283 24.6 120.835 25.656C120.419 26.68 120.211 27.768 120.211 28.92C120.211 30.264 120.451 31.528 120.931 32.712C121.411 33.864 122.067 34.792 122.899 35.496C123.763 36.168 124.739 36.504 125.827 36.504Z" fill="#171717"/>
</svg>
